<?xml version="1.0" standalone="no"?>
<!DOCTYPE svg PUBLIC "-//W3C//DTD SVG 20010904//EN"
 "http://www.w3.org/TR/2001/REC-SVG-20010904/DTD/svg10.dtd">
<svg version="1.0" xmlns="http://www.w3.org/2000/svg"
 width="863.000000pt" height="863.000000pt" viewBox="0 0 863.000000 863.000000"
 preserveAspectRatio="xMidYMid meet">
<metadata>
Created by potrace 1.11, written by Peter Selinger 2001-2013
</metadata>
<g transform="translate(0.000000,863.000000) scale(0.100000,-0.100000)"
fill="#000000" stroke="none">
<path d="M5446 5749 c-385 -698 -701 -1269 -703 -1269 -2 0 -1 32 3 70 3 39 4
70 0 70 -3 0 -88 -41 -187 -91 l-182 -90 7 173 c10 255 35 704 46 852 6 71 9
131 6 133 -2 3 -13 0 -24 -6 -14 -7 -22 -25 -26 -58 -30 -245 -77 -1313 -75
-1728 1 -256 7 -311 40 -336 42 -32 190 -80 265 -86 66 -5 72 -4 88 18 9 13
16 31 16 40 0 9 8 19 18 22 25 6 54 113 90 329 15 93 30 168 33 168 3 0 30
-30 60 -67 252 -314 560 -671 723 -841 180 -186 265 -225 211 -95 -20 47 -19
48 11 24 76 -60 69 4 -19 179 -74 144 -192 344 -422 715 -233 375 -355 584
-355 606 0 5 75 122 168 261 195 295 483 746 643 1009 110 180 111 183 68 148
-62 -51 -234 -247 -513 -588 -133 -162 -289 -350 -348 -417 -102 -115 -197
-208 -206 -199 -4 4 21 49 800 1458 258 466 468 852 466 857 -2 4 -318 -563
-702 -1261z"/>
<path d="M4784 6540 c-146 -16 -152 -18 -163 -58 -6 -20 -9 -37 -8 -38 1 -1
31 3 67 8 36 6 146 11 245 11 201 0 331 -16 514 -63 63 -17 117 -30 121 -30 7
0 40 65 40 79 0 10 -118 42 -235 65 -178 34 -406 44 -581 26z"/>
<path d="M4317 6435 c-281 -96 -580 -285 -774 -488 -74 -76 -84 -102 -15 -36
233 225 531 389 900 495 15 4 13 56 -3 60 -5 2 -54 -12 -108 -31z"/>
<path d="M6120 6139 c-12 -23 -20 -42 -18 -43 2 -1 42 -32 90 -69 225 -174
436 -432 564 -689 27 -54 51 -98 54 -98 3 1 97 90 209 198 l203 197 -23 48
c-13 26 -28 47 -35 47 -7 0 -101 -43 -210 -95 -108 -52 -198 -94 -199 -93 -1
2 -26 39 -55 83 -72 110 -184 245 -277 336 -91 89 -251 219 -270 219 -7 0 -22
-18 -33 -41z"/>
<path d="M2735 5249 c-195 -111 -584 -394 -566 -412 6 -6 49 21 109 67 141
107 324 227 437 288 90 49 121 75 113 99 -2 5 -44 -14 -93 -42z"/>
<path d="M7341 5086 c-23 -19 -65 -48 -94 -65 -55 -31 -206 -84 -276 -96 -22
-4 -43 -11 -46 -15 -3 -5 3 -53 14 -107 88 -434 21 -909 -185 -1313 -105 -207
-224 -363 -391 -512 -324 -292 -712 -468 -1147 -519 -93 -11 -449 -7 -521 5
-16 3 -5 -1 25 -9 174 -45 540 -59 772 -29 724 93 1366 547 1700 1200 172 335
248 659 248 1049 0 179 -30 445 -50 445 -5 0 -27 -15 -49 -34z"/>
<path d="M3562 4665 c-66 -31 -124 -70 -237 -160 -106 -84 -234 -204 -220
-204 6 -1 53 35 105 79 155 132 308 230 359 230 33 0 45 -34 31 -89 -18 -73
-96 -262 -181 -440 -70 -146 -96 -214 -71 -185 17 18 195 400 249 533 73 178
81 260 28 261 -5 0 -34 -11 -63 -25z"/>
<path d="M1479 4205 c-339 -326 -445 -422 -447 -407 -5 31 55 312 89 419 17
54 44 125 60 158 23 49 24 56 7 35 -34 -40 -105 -198 -133 -295 -24 -85 -65
-276 -80 -375 l-7 -45 54 51 c29 28 222 212 428 410 207 197 387 369 401 381
l25 23 -22 -168 c-50 -368 -75 -673 -84 -1002 -13 -474 -12 -1014 1 -1043 34
-74 243 -111 314 -55 14 11 25 30 25 43 0 15 7 26 20 30 33 10 42 39 29 88 -8
31 -9 180 -4 560 4 284 5 517 2 517 -3 0 -74 -45 -158 -100 -85 -55 -159 -100
-166 -100 -7 0 -13 8 -13 18 4 292 36 688 86 1081 13 107 23 196 21 198 -2 2
-204 -188 -448 -422z"/>
<path d="M2933 4132 c-25 -34 -36 -113 -58 -432 -34 -500 -57 -1277 -41 -1383
7 -46 10 -50 56 -71 l49 -23 -147 -136 c-188 -173 -319 -283 -509 -424 -84
-63 -153 -120 -153 -128 0 -8 -11 -22 -25 -31 -75 -49 -11 -127 146 -179 65
-22 94 -26 154 -23 64 3 85 9 176 55 255 129 571 409 957 848 217 246 272 314
394 485 129 182 239 359 301 487 66 137 67 168 8 278 -23 44 -51 91 -62 104
l-19 24 -146 -82 c-80 -44 -147 -81 -149 -81 -2 0 8 28 21 61 33 80 29 103
-14 107 -45 4 -84 -22 -223 -151 -61 -56 -121 -108 -135 -115 -33 -17 -64 0
-132 72 -29 31 -55 56 -58 56 -3 0 -4 -32 -2 -72 3 -72 3 -72 46 -105 24 -18
54 -33 68 -33 16 0 62 35 150 115 145 132 202 170 240 161 25 -7 26 -10 21
-48 -8 -60 -71 -181 -185 -353 -158 -240 -392 -545 -392 -510 0 9 7 121 16
247 8 127 14 232 12 234 -2 2 -94 -53 -203 -121 -184 -115 -200 -123 -204
-102 -8 53 27 755 55 1095 9 106 14 195 12 198 -3 2 -14 -9 -25 -24z"/>
<path d="M2298 3874 c-37 -52 -36 -97 0 -155 51 -79 170 -155 262 -166 45 -5
51 -3 79 25 41 40 39 52 -8 52 -54 0 -113 23 -181 71 -73 51 -113 107 -120
167 l-5 45 -27 -39z"/>
</g>
</svg>
